# xmcd CD database file
#
# Track frame offsets:
#	150
#	28117
#	49840
#	86857
#	118630
#	138202
#	161712
#	205107
#	235992
#	257382
#	283435
#	300305
#
# Disc length: 4362 seconds
#
# Revision: 2
# Processed by: cddbd v1.5.1PL0 Copyright (c) Steve Scherf et al.
# Submitted via: CDex 1.51
#
DISCID=a611080c
DTITLE=MASAYA - Masaya BGM Collection ~Orchestra Instrumental~
DYEAR=1996
DGENRE=New Age
TTITLE0=儚き命の詩
TTITLE1=残華
TTITLE2=大地にて
TTITLE3=風に吹かれて
TTITLE4=森と風の旅人
TTITLE5=友へ
TTITLE6=伝言
TTITLE7=故国へ
TTITLE8=奇跡の子
TTITLE9=世界よ止まれ
TTITLE10=胸いっぱいの言えぬ想い
TTITLE11=旅立ち
EXTD=YEAR: 1996
EXTT0=
EXTT1=
EXTT2=
EXTT3=
EXTT4=
EXTT5=
EXTT6=
EXTT7=
EXTT8=
EXTT9=
EXTT10=
EXTT11=
PLAYORDER=
